HIERARCHY
ROOT Hips
{
	OFFSET 0.000000 103.266502 0.000000
	CHANNELS 6 Xposition Yposition Zposition Xrotation Yrotation Zrotation 
	JOINT Spine
	{
		OFFSET -0.002400 12.777504 0.315300
		CHANNELS 3 Xrotation Yrotation Zrotation
		JOINT Spine1
		{
			OFFSET -0.002067 5.816869 0.032633
			CHANNELS 3 Xrotation Yrotation Zrotation
			JOINT Spine1_split
			{
				OFFSET -0.002067 5.816869 0.032633
				CHANNELS 3 Xrotation Yrotation Zrotation
				JOINT Spine2
				{
					OFFSET -0.002067 5.816869 0.032633
					CHANNELS 3 Xrotation Yrotation Zrotation
					JOINT Neck
					{
						OFFSET -0.003700 21.199493 -0.826900
						CHANNELS 3 Xrotation Yrotation Zrotation
						JOINT Head
						{
							OFFSET 0.000000 20.442200 4.834800
							CHANNELS 3 Xrotation Yrotation Zrotation
							JOINT HeadTop_End
							{
								OFFSET 0.000000 34.668396 4.968400
								CHANNELS 3 Xrotation Yrotation Zrotation
								End Site
								{
									OFFSET 0.000000 0.000000 0.000000
								}
							}
						}
					}
					JOINT LeftShoulder
					{
						OFFSET 3.288150 8.794197 -1.372250
						CHANNELS 3 Xrotation Yrotation Zrotation
						JOINT LeftShoulder_split
						{
							OFFSET 3.288150 8.794197 -1.372250
							CHANNELS 3 Xrotation Yrotation Zrotation
							JOINT LeftArm
							{
								OFFSET 11.953299 -2.279007 -0.146200
								CHANNELS 3 Xrotation Yrotation Zrotation
								JOINT LeftForeArm
								{
									OFFSET 18.448900 0.000000 0.000000
									CHANNELS 3 Xrotation Yrotation Zrotation
									JOINT LeftHand
									{
										OFFSET 29.527798 0.000000 0.000000
										CHANNELS 3 Xrotation Yrotation Zrotation
										JOINT LeftHandThumb1
										{
											OFFSET 10.739754 -2.369614 9.225399
											CHANNELS 3 Xrotation Yrotation Zrotation
											JOINT LeftHandThumb2
											{
												OFFSET 4.926170 -2.844131 2.844125
												CHANNELS 3 Xrotation Yrotation Zrotation
												JOINT LeftHandThumb3
												{
													OFFSET 4.614891 -2.664413 2.664409
													CHANNELS 3 Xrotation Yrotation Zrotation
													JOINT LeftHandThumb4
													{
														OFFSET 4.432465 -2.559082 2.559083
														CHANNELS 3 Xrotation Yrotation Zrotation
														End Site
														{
															OFFSET 0.000000 0.000000 0.000000
														}
													}
												}
											}
										}
										JOINT LeftHandIndex1
										{
											OFFSET 26.467674 0.187653 6.405298
											CHANNELS 3 Xrotation Yrotation Zrotation
											JOINT LeftHandIndex2
											{
												OFFSET 8.792900 0.000000 0.000000
												CHANNELS 3 Xrotation Yrotation Zrotation
												JOINT LeftHandIndex3
												{
													OFFSET 10.075203 0.000000 0.000000
													CHANNELS 3 Xrotation Yrotation Zrotation
													End Site
													{
														OFFSET 0.000000 0.000000 0.000000
													}
												}
											}
										}
										JOINT LeftHandMiddle1
										{
											OFFSET 25.764404 0.000000 0.000000
											CHANNELS 3 Xrotation Yrotation Zrotation
											JOINT LeftHandMiddle2
											{
												OFFSET 9.393974 0.000000 0.000000
												CHANNELS 3 Xrotation Yrotation Zrotation
												JOINT LeftHandMiddle3
												{
													OFFSET 10.771950 0.000000 0.000000
													CHANNELS 3 Xrotation Yrotation Zrotation
													End Site
													{
														OFFSET 0.000000 0.000000 0.000000
													}
												}
											}
										}
										JOINT LeftHandRing1
										{
											OFFSET 24.660927 0.144547 -6.225808
											CHANNELS 3 Xrotation Yrotation Zrotation
											JOINT LeftHandRing2
											{
												OFFSET 9.393799 0.000000 0.000000
												CHANNELS 3 Xrotation Yrotation Zrotation
												JOINT LeftHandRing3
												{
													OFFSET 9.928497 0.000000 0.000000
													CHANNELS 3 Xrotation Yrotation Zrotation
													End Site
													{
														OFFSET 0.000000 0.000000 0.000000
													}
												}
											}
										}
										JOINT LeftHandPinky1
										{
											OFFSET 23.655350 0.125290 -12.815412
											CHANNELS 3 Xrotation Yrotation Zrotation
											JOINT LeftHandPinky2
											{
												OFFSET 8.425102 0.000000 0.000000
												CHANNELS 3 Xrotation Yrotation Zrotation
												JOINT LeftHandPinky3
												{
													OFFSET 8.147003 0.000000 0.000000
													CHANNELS 3 Xrotation Yrotation Zrotation
													End Site
													{
														OFFSET 0.000000 0.000000 0.000000
													}
												}
											}
										}
									}
								}
							}
						}
					}
					JOINT RightShoulder
					{
						OFFSET -3.249400 8.794197 -1.372250
						CHANNELS 3 Xrotation Yrotation Zrotation
						JOINT RightShoulder_split
						{
							OFFSET -3.249400 8.794197 -1.372250
							CHANNELS 3 Xrotation Yrotation Zrotation
							JOINT RightArm
							{
								OFFSET -11.953299 -2.279007 -0.146200
								CHANNELS 3 Xrotation Yrotation Zrotation
								JOINT RightForeArm
								{
									OFFSET -18.448900 0.000000 0.000000
									CHANNELS 3 Xrotation Yrotation Zrotation
									JOINT RightHand
									{
										OFFSET -29.527802 0.000000 0.000000
										CHANNELS 3 Xrotation Yrotation Zrotation
										JOINT RightHandThumb1
										{
											OFFSET -10.739754 -2.369614 9.225399
											CHANNELS 3 Xrotation Yrotation Zrotation
											JOINT RightHandThumb2
											{
												OFFSET -4.926170 -2.844131 2.844125
												CHANNELS 3 Xrotation Yrotation Zrotation
												JOINT RightHandThumb3
												{
													OFFSET -4.614891 -2.664413 2.664409
													CHANNELS 3 Xrotation Yrotation Zrotation
													JOINT RightHandThumb4
													{
														OFFSET -4.432465 -2.559082 2.559083
														CHANNELS 3 Xrotation Yrotation Zrotation
														End Site
														{
															OFFSET 0.000000 0.000000 0.000000
														}
													}
												}
											}
										}
										JOINT RightHandIndex1
										{
											OFFSET -26.467674 0.187653 6.405298
											CHANNELS 3 Xrotation Yrotation Zrotation
											JOINT RightHandIndex2
											{
												OFFSET -8.792900 0.000000 0.000000
												CHANNELS 3 Xrotation Yrotation Zrotation
												JOINT RightHandIndex3
												{
													OFFSET -10.075203 0.000000 0.000000
													CHANNELS 3 Xrotation Yrotation Zrotation
													End Site
													{
														OFFSET 0.000000 0.000000 0.000000
													}
												}
											}
										}
										JOINT RightHandMiddle1
										{
											OFFSET -25.764404 0.000000 0.000000
											CHANNELS 3 Xrotation Yrotation Zrotation
											JOINT RightHandMiddle2
											{
												OFFSET -9.393974 0.000000 0.000000
												CHANNELS 3 Xrotation Yrotation Zrotation
												JOINT RightHandMiddle3
												{
													OFFSET -10.771950 0.000000 0.000000
													CHANNELS 3 Xrotation Yrotation Zrotation
													End Site
													{
														OFFSET 0.000000 0.000000 0.000000
													}
												}
											}
										}
										JOINT RightHandRing1
										{
											OFFSET -24.660927 0.144547 -6.225808
											CHANNELS 3 Xrotation Yrotation Zrotation
											JOINT RightHandRing2
											{
												OFFSET -9.393799 0.000000 0.000000
												CHANNELS 3 Xrotation Yrotation Zrotation
												JOINT RightHandRing3
												{
													OFFSET -9.928497 0.000000 0.000000
													CHANNELS 3 Xrotation Yrotation Zrotation
													End Site
													{
														OFFSET 0.000000 0.000000 0.000000
													}
												}
											}
										}
										JOINT RightHandPinky1
										{
											OFFSET -23.655350 0.125290 -12.815412
											CHANNELS 3 Xrotation Yrotation Zrotation
											JOINT RightHandPinky2
											{
												OFFSET -8.425102 0.000000 0.000000
												CHANNELS 3 Xrotation Yrotation Zrotation
												JOINT RightHandPinky3
												{
													OFFSET -8.147003 0.000000 0.000000
													CHANNELS 3 Xrotation Yrotation Zrotation
													End Site
													{
														OFFSET 0.000000 0.000000 0.000000
													}
												}
											}
										}
									}
								}
							}
						}
					}
				}
			}
		}
	}
	JOINT LeftUpLeg
	{
		OFFSET 11.394100 -6.187798 -0.413800
		CHANNELS 3 Xrotation Yrotation Zrotation
		JOINT LeftLeg
		{
			OFFSET 0.430247 -32.302673 3.732800
			CHANNELS 3 Xrotation Yrotation Zrotation
			JOINT LeftFoot
			{
				OFFSET -0.430247 -48.264931 -6.423300
				CHANNELS 3 Xrotation Yrotation Zrotation
				JOINT LeftToeBase
				{
					OFFSET 4.230900 -16.068199 23.438400
					CHANNELS 3 Xrotation Yrotation Zrotation
					JOINT LeftToe_End
					{
						OFFSET 4.510700 0.695400 19.974600
						CHANNELS 3 Xrotation Yrotation Zrotation
						End Site
						{
							OFFSET 0.000000 0.000000 0.000000
						}
					}
				}
			}
		}
	}
	JOINT RightUpLeg
	{
		OFFSET -11.333700 -6.187798 -0.413800
		CHANNELS 3 Xrotation Yrotation Zrotation
		JOINT RightLeg
		{
			OFFSET -0.430392 -32.302628 3.733000
			CHANNELS 3 Xrotation Yrotation Zrotation
			JOINT RightFoot
			{
				OFFSET 0.430392 -48.264973 -6.423500
				CHANNELS 3 Xrotation Yrotation Zrotation
				JOINT RightToeBase
				{
					OFFSET -4.230900 -16.068199 23.438400
					CHANNELS 3 Xrotation Yrotation Zrotation
					JOINT RightToe_End
					{
						OFFSET -4.510700 0.695400 19.974600
						CHANNELS 3 Xrotation Yrotation Zrotation
						End Site
						{
							OFFSET 0.000000 0.000000 0.000000
						}
					}
				}
			}
		}
	}
}
MOTION
Frames: 5
Frame Time: 0.016667
-0.417848 85.632576 0.299602 11.705712 -49.521699 11.404209 10.978867 2.848562 -2.161163 6.100707 5.566543 -4.284685 0.000000 0.000000 0.000000 -5.786917 6.328140 -3.046179 2.318901 9.363319 -0.265302 -4.146743 23.161899 -3.523335 -0.000000 -0.000000 -0.000000 -1.875344 -16.181739 -2.870471 0.000000 0.000000 0.000000 -10.644673 2.164755 -45.510636 -22.862387 -25.786251 -15.871669 2.491049 -2.511883 6.860509 18.457953 -9.513808 13.216578 -1.150200 11.255335 -8.400834 5.706542 8.483115 -0.820719 -0.000002 0.000002 -0.000002 -1.232796 -5.771932 -0.192343 0.133954 -0.197659 -4.602124 0.000001 0.000002 -0.000000 1.884730 4.663365 -4.597420 0.476704 -1.009850 -12.986430 0.000004 0.000000 0.000000 3.024620 7.938950 -14.103486 -0.708003 -0.566242 -18.895729 -0.000000 0.000003 -0.000000 2.010383 6.305966 -22.386527 -0.815366 -0.210766 -16.746487 0.000002 -0.000002 -0.000000 -5.074771 24.344980 1.482929 0.000000 0.000000 0.000000 6.642457 -34.735016 57.610426 -21.032041 44.833847 19.961745 -0.087240 35.608481 7.474302 55.149536 18.649545 -29.698267 -0.442555 -14.180525 7.313147 21.666987 -29.244500 9.142376 0.000000 0.000000 -0.000000 5.673378 7.585029 36.844161 1.050449 3.824481 68.900271 0.000001 -0.000002 -0.000001 -0.125693 1.886088 45.000773 -1.169015 3.204693 68.417684 -0.000002 -0.000001 0.000002 -5.312001 1.216629 58.508828 -0.745200 1.667580 48.011251 -0.000000 -0.000002 0.000003 -7.756785 -9.376457 47.264004 -0.526066 1.541591 45.600508 0.000000 0.000000 0.000000 -68.323325 24.998986 43.261756 44.537751 -19.585067 3.202435 7.537787 0.565782 -11.518789 -0.806801 -6.108575 0.921057 -0.000000 0.000001 -0.000000 -38.056533 1.958759 -24.202579 52.398630 1.036727 -6.829691 -21.041969 -1.757688 25.309512 0.528336 2.970024 1.471354 -0.000000 -0.000001 0.000000 
-0.437916 85.703270 0.171927 11.507054 -49.827200 11.191513 10.957742 2.846003 -2.173931 5.917138 5.588678 -4.389564 0.000000 0.000000 0.000000 -5.960387 6.358702 -3.163038 2.261342 9.594045 -0.194443 -3.771943 23.396938 -3.738610 0.000000 0.000000 0.000000 -1.850126 -16.049205 -2.794401 0.000000 0.000000 0.000000 -9.956434 2.817343 -45.285896 -23.315189 -27.943274 -17.248434 2.184524 -1.065435 7.247066 18.457999 -9.513787 13.216598 -1.150191 11.255326 -8.400835 5.706543 8.483080 -0.820702 -0.000002 0.000001 -0.000002 -1.232780 -5.771927 -0.192333 0.133968 -0.197667 -4.602073 0.000000 0.000002 -0.000002 1.884763 4.663383 -4.597388 0.476679 -1.009839 -12.986445 0.000002 -0.000001 0.000001 3.024627 7.938924 -14.103477 -0.707993 -0.566205 -18.895730 -0.000002 0.000003 0.000001 2.010430 6.305941 -22.386558 -0.815400 -0.210747 -16.746468 -0.000003 -0.000001 -0.000001 -5.082249 24.342371 1.499011 0.000000 0.000000 0.000000 5.825081 -34.063782 57.690168 -20.478446 43.293984 19.040889 0.231112 35.997173 7.762138 55.149533 18.649541 -29.698274 -0.442552 -14.180530 7.313148 21.666984 -29.244507 9.142373 -0.000000 -0.000000 -0.000000 5.673377 7.585029 36.844161 1.050451 3.824482 68.900271 -0.000001 -0.000001 0.000000 -0.125695 1.886089 45.000770 -1.169014 3.204699 68.417684 0.000001 0.000000 0.000002 -5.312003 1.216628 58.508821 -0.745199 1.667580 48.011251 0.000002 -0.000000 0.000000 -7.756785 -9.376454 47.264004 -0.526066 1.541587 45.600508 0.000000 -0.000001 0.000002 -68.048580 25.037172 43.481609 44.256412 -19.515961 3.188842 7.635430 0.575308 -11.651370 -0.735664 -6.081544 0.857468 -0.000000 0.000000 -0.000000 -38.065310 1.844850 -24.045573 52.357498 1.208656 -6.817149 -20.961502 -1.576389 25.120005 0.528343 2.970038 1.471334 -0.000000 0.000000 0.000000 
-0.464450 85.775017 0.052317 11.371940 -50.171336 11.032110 10.933961 2.842310 -2.176113 5.754457 5.620923 -4.465464 0.000000 0.000000 0.000000 -6.114667 6.395250 -3.246988 2.473469 9.737920 -0.469672 -4.007684 23.494369 -3.699873 0.000000 0.000000 -0.000000 -1.856185 -16.125030 -2.793415 0.000000 0.000000 0.000000 -9.304245 3.610383 -44.990606 -23.777480 -29.920696 -18.575210 1.944029 0.057001 7.820660 18.457980 -9.513791 13.216592 -1.150185 11.255277 -8.400873 5.706511 8.483142 -0.820690 -0.000001 -0.000001 -0.000000 -1.232765 -5.771926 -0.192325 0.133945 -0.197698 -4.602123 -0.000001 0.000001 0.000000 1.884751 4.663366 -4.597401 0.476689 -1.009850 -12.986429 0.000001 0.000000 -0.000001 3.024625 7.938915 -14.103484 -0.708018 -0.566194 -18.895754 0.000003 -0.000000 -0.000001 2.010397 6.305958 -22.386520 -0.815370 -0.210755 -16.746492 0.000001 0.000000 0.000001 -5.081648 24.149906 1.470716 0.000000 0.000000 0.000000 7.290162 -35.178944 57.904486 -21.255081 45.591164 20.253116 -0.452731 34.561560 8.086124 55.149539 18.649541 -29.698274 -0.442552 -14.180525 7.313147 21.666989 -29.244503 9.142376 0.000000 0.000001 -0.000000 5.673377 7.585028 36.844158 1.050449 3.824480 68.900271 0.000001 -0.000002 0.000000 -0.125694 1.886085 45.000773 -1.169015 3.204691 68.417677 0.000001 0.000001 0.000002 -5.312002 1.216629 58.508821 -0.745199 1.667582 48.011251 0.000003 -0.000000 -0.000000 -7.756785 -9.376459 47.264001 -0.526066 1.541592 45.600508 -0.000001 0.000001 0.000002 -67.797892 25.083576 43.740467 43.974021 -19.443667 3.162185 7.718436 0.594685 -11.794228 -0.704620 -5.969791 0.841883 -0.000000 0.000002 -0.000000 -38.115871 1.750981 -23.882562 52.309895 1.397823 -6.798625 -20.875437 -1.381386 24.924339 0.528307 2.970073 1.471361 0.000000 -0.000002 0.000000 
-0.495646 85.848312 -0.064806 11.225084 -50.498785 10.897884 10.923589 2.826951 -2.187424 5.661717 5.628860 -4.526594 0.000000 0.000000 0.000000 -6.202367 6.409822 -3.316669 2.263844 9.977097 -0.273082 -3.343278 23.780205 -4.097044 0.000000 -0.000000 0.000000 -1.837231 -16.093985 -2.699861 0.000000 0.000000 0.000000 -8.760461 4.176573 -44.764978 -24.203697 -31.576835 -19.708434 1.849842 0.895194 8.346053 18.457963 -9.513808 13.216583 -1.150195 11.255330 -8.400833 5.706551 8.483088 -0.820721 -0.000000 0.000000 0.000001 -1.232776 -5.771949 -0.192327 0.133953 -0.197664 -4.602133 -0.000000 0.000000 0.000001 1.884742 4.663358 -4.597441 0.476685 -1.009819 -12.986393 -0.000001 0.000001 -0.000002 3.024636 7.938916 -14.103483 -0.708012 -0.566183 -18.895759 -0.000000 -0.000001 -0.000000 2.010387 6.305935 -22.386570 -0.815358 -0.210747 -16.746464 0.000004 -0.000000 -0.000001 -5.039716 24.119901 1.323478 0.000000 0.000000 0.000000 8.594056 -36.353965 58.117076 -22.083516 47.698472 21.417677 -0.802646 33.303835 8.194905 55.149536 18.649543 -29.698274 -0.442552 -14.180525 7.313147 21.666986 -29.244503 9.142375 -0.000000 -0.000000 -0.000000 5.673378 7.585027 36.844158 1.050451 3.824482 68.900271 0.000001 -0.000002 0.000000 -0.125692 1.886082 45.000770 -1.169015 3.204692 68.417677 -0.000001 -0.000000 -0.000002 -5.312002 1.216626 58.508821 -0.745198 1.667580 48.011247 -0.000001 -0.000001 -0.000001 -7.756785 -9.376458 47.263997 -0.526067 1.541593 45.600508 -0.000001 -0.000001 0.000000 -67.480698 25.149354 43.884280 43.682707 -19.323027 3.199316 7.793025 0.630385 -11.979891 -0.623519 -5.882102 0.767805 -0.000000 0.000000 -0.000000 -38.152279 1.676883 -23.753393 52.269259 1.579302 -6.781221 -20.797475 -1.196246 24.736152 0.528333 2.970051 1.471346 0.000000 -0.000001 -0.000000 
-0.533514 85.921349 -0.172893 11.174719 -50.844215 10.835688 10.903982 2.809532 -2.181726 5.549814 5.637683 -4.562773 0.000000 0.000000 0.000000 -6.308811 6.419477 -3.362158 2.157815 10.267390 -0.535476 -3.095859 23.970149 -4.101395 0.000000 -0.000000 -0.000000 -1.847867 -16.070621 -2.774189 0.000000 0.000000 0.000000 -8.282006 4.767131 -44.394228 -24.638244 -33.133801 -20.826539 1.553729 1.659278 8.901369 18.457982 -9.513805 13.216603 -1.150193 11.255320 -8.400822 5.706552 8.483133 -0.820722 -0.000000 -0.000001 -0.000000 -1.232804 -5.771920 -0.192366 0.133962 -0.197668 -4.602106 0.000000 0.000000 -0.000001 1.884757 4.663349 -4.597386 0.476670 -1.009815 -12.986424 -0.000004 0.000002 0.000001 3.024634 7.938918 -14.103473 -0.708023 -0.566218 -18.895723 0.000000 -0.000002 0.000000 2.010404 6.305920 -22.386546 -0.815386 -0.210731 -16.746461 -0.000001 -0.000001 -0.000002 -4.969659 24.003423 1.112968 0.000000 0.000000 0.000000 9.818355 -37.442407 58.296327 -23.000380 49.695941 22.598079 -0.924251 32.110833 8.235187 55.149536 18.649545 -29.698267 -0.442548 -14.180530 7.313147 21.666991 -29.244507 9.142374 0.000000 0.000000 -0.000000 5.673377 7.585029 36.844158 1.050450 3.824482 68.900271 0.000000 -0.000000 -0.000001 -0.125699 1.886089 45.000773 -1.169015 3.204703 68.417684 -0.000001 -0.000001 -0.000001 -5.312004 1.216628 58.508821 -0.745197 1.667581 48.011251 0.000002 -0.000002 -0.000001 -7.756788 -9.376459 47.264001 -0.526067 1.541590 45.600508 -0.000002 0.000002 -0.000002 -67.229265 25.222372 44.078629 43.392359 -19.221713 3.206863 7.860627 0.676871 -12.155605 -0.604966 -5.850988 0.764767 0.000000 0.000000 -0.000000 -38.241956 1.621182 -23.607103 52.219477 1.762454 -6.763045 -20.714178 -1.009937 24.549023 0.528356 2.970032 1.471338 -0.000000 -0.000002 0.000000 
